<svg width="300" height="250" viewBox="-50 -50 250 200" xmlns="http://www.w3.org/2000/svg"><g id="svgGroup" stroke-linecap="round" fill-rule="evenodd" font-size="9pt" stroke="#000" stroke-width="1.5mm" fill="white" style="stroke:#000;stroke-width:1.5mm;fill:white"><path d="M 53.8 73.5 L 54.8 72.9 L 53 71.7 A 38.238 38.238 0 0 0 52.569 71.452 C 51.605 70.906 50.938 70.6 50.5 70.6 A 3.601 3.601 0 0 1 50.244 70.538 C 49.817 70.42 49.236 70.19 48.5 69.812 A 18.198 18.198 0 0 1 48.1 69.6 C 46.918 69.009 42.146 68.224 33.689 67.245 A 480.102 480.102 0 0 0 33.3 67.2 A 632.341 632.341 0 0 1 31.913 67.053 C 24.052 66.213 18.52 65.467 15.4 64.9 A 341.629 341.629 0 0 0 16.055 61.544 C 16.656 58.372 17.194 55.252 17.632 52.182 A 155.551 155.551 0 0 0 17.7 51.7 A 130.825 130.825 0 0 0 18.846 51.677 C 24.487 51.536 28.9 51.045 32.087 50.204 A 23.702 23.702 0 0 0 32.1 50.2 A 147.432 147.432 0 0 0 32.741 50.034 C 35.786 49.236 37.749 48.615 38.63 48.323 A 44.138 44.138 0 0 0 38.7 48.3 C 39.519 48.054 40.002 47.742 40.151 47.362 A 0.714 0.714 0 0 0 40.2 47.1 C 40.2 46.6 40.5 46.4 41.2 46.2 A 6.089 6.089 0 0 0 41.486 46.194 C 41.983 46.17 42.2 46.085 42.2 46 C 42.2 46 42.1 46 41.9 45.8 A 0.135 0.135 0 0 1 41.801 45.737 C 41.743 45.663 41.7 45.531 41.7 45.4 A 0.339 0.339 0 0 0 41.623 45.188 C 41.471 44.992 41.097 44.824 40.5 44.6 A 1.767 1.767 0 0 1 39.964 44.337 C 39.489 44 39.067 43.408 38.7 42.6 A 6.134 6.134 0 0 0 37.936 41.07 C 36.709 39.277 34.44 37.867 31.128 36.842 A 28.406 28.406 0 0 0 30.3 36.6 A 30.48 30.48 0 0 0 29.397 36.455 C 27.904 36.237 26.205 36.1 24.3 36.1 L 20.6 36.1 A 178.398 178.398 0 0 1 20.805 34.87 C 21.431 31.185 22.264 26.958 23.301 22.245 A 370.621 370.621 0 0 1 23.6 20.9 C 28.552 19.73 33.99 18.721 39.915 17.875 A 240.358 240.358 0 0 1 41.9 17.6 C 48.545 16.707 52.534 16.012 53.965 15.513 A 5.032 5.032 0 0 0 54 15.5 L 55.4 15 L 53.6 14 A 9.006 9.006 0 0 0 53.152 13.816 C 49.257 12.331 40.01 11.488 25.5 11.2 A 108.272 108.272 0 0 1 25.501 11.19 C 25.591 10.202 25.681 9.375 25.698 8.784 A 6.54 6.54 0 0 0 25.7 8.6 A 3.196 3.196 0 0 0 25.689 8.321 C 25.667 8.075 25.617 7.907 25.561 7.837 A 0.082 0.082 0 0 0 25.5 7.8 A 0.238 0.238 0 0 0 25.37 7.848 C 25.186 7.972 24.954 8.339 24.72 8.948 A 7.634 7.634 0 0 0 24.7 9 A 3.729 3.729 0 0 1 24.485 9.377 C 24.125 9.926 23.697 10.2 23.2 10.2 C 22 10.1 21.4 9 21.4 6.9 L 21.4 6.3 L 21.8 3.1 C 21.9 1.7 21.4 1 20.1 1 A 1.288 1.288 0 0 1 19.285 0.705 A 0.99 0.99 0 0 1 19.1 0.5 A 8.54 8.54 0 0 1 19.096 0.496 C 18.699 0.198 18.499 0 18.2 0 A 0.442 0.442 0 0 0 18.004 0.051 C 17.73 0.187 17.38 0.601 16.904 1.394 A 15.713 15.713 0 0 0 16.9 1.4 A 8.707 8.707 0 0 0 16.489 1.997 C 16.119 2.588 15.875 3.15 15.8 3.6 A 22.554 22.554 0 0 1 15.571 4.624 C 15.148 6.323 14.562 7.747 13.775 8.821 A 6.618 6.618 0 0 1 13.3 9.4 A 1.507 1.507 0 0 0 13.131 9.604 C 12.917 9.911 12.741 10.359 12.5 11 L 9.3 11 A 18.154 18.154 0 0 0 8.866 11.482 C 7.938 12.55 7.398 13.459 7.245 14.248 A 2.381 2.381 0 0 0 7.2 14.7 L 7.6 16.8 C 7.6 17.079 7.513 17.359 7.259 17.638 A 1.815 1.815 0 0 1 7.2 17.7 A 1.905 1.905 0 0 0 6.855 18.142 C 6.757 18.325 6.7 18.534 6.7 18.8 A 4.741 4.741 0 0 1 6.441 19.344 C 6.259 19.672 6.021 20.016 5.7 20.4 A 6.663 6.663 0 0 0 5.417 20.7 C 5.067 21.097 4.866 21.435 4.814 21.68 A 0.579 0.579 0 0 0 4.8 21.8 C 4.8 22.043 4.997 22.221 5.285 22.332 A 1.804 1.804 0 0 0 5.5 22.4 A 3.83 3.83 0 0 1 5.784 22.409 C 5.98 22.424 6.133 22.457 6.248 22.514 A 0.471 0.471 0 0 1 6.5 22.8 A 2.713 2.713 0 0 1 6.623 22.932 C 6.813 23.15 7.057 23.475 7.3 23.8 A 0.754 0.754 0 0 0 7.639 24.135 C 8.086 24.368 8.864 24.333 9.9 24.139 A 16.55 16.55 0 0 0 10.1 24.1 C 10.009 24.557 9.918 25.598 9.673 27.301 A 77.317 77.317 0 0 1 9.6 27.8 C 9.316 29.697 8.762 33.212 7.852 38.431 A 749.734 749.734 0 0 1 7.7 39.3 L 6.9 43 L 7 43.3 A 65.788 65.788 0 0 0 6.816 44.357 C 6.685 45.15 6.569 45.975 6.5 46.8 C 6.4 46.9 6.2 47.3 5.7 47.8 A 2.849 2.849 0 0 0 5.397 48.267 C 5.213 48.62 5.115 48.992 5.102 49.325 A 1.931 1.931 0 0 0 5.1 49.4 A 1.374 1.374 0 0 0 5.083 49.506 C 5.031 49.942 5.237 50.2 5.7 50.2 A 2.03 2.03 0 0 1 5.784 50.201 C 5.889 50.205 6.024 50.223 6.1 50.3 C 5.9 52.7 5.6 57.6 5.2 64.9 A 2.312 2.312 0 0 0 5.077 65.034 C 4.909 65.232 4.69 65.54 4.42 65.994 A 14.539 14.539 0 0 0 4.3 66.2 A 35.405 35.405 0 0 0 4.294 66.207 C 3.798 66.803 3.499 67.201 3.2 67.4 C 2.9 67.6 2.8 67.8 2.8 68.1 L 3.3 70.7 C 3.3 71.28 3.094 71.997 2.683 72.738 A 6.724 6.724 0 0 1 2.4 73.2 A 11.579 11.579 0 0 0 2.141 73.606 C 1.714 74.309 1.5 74.847 1.5 75.1 L 1.6 75.4 C 1.6 75.693 1.314 76.177 0.835 76.572 A 3.026 3.026 0 0 1 0.8 76.6 C 0.351 77.139 0.063 77.517 0.009 77.806 A 0.516 0.516 0 0 0 0 77.9 C 0 78.2 0.2 78.4 0.6 78.4 C 1 78.4 1.4 78.6 1.8 79 C 2.184 79.288 2.567 79.759 2.95 80.15 A 7.348 7.348 0 0 0 3 80.2 C 3.4 80.8 3.9 81 4.5 81 L 5.6 81 C 6.469 86.022 6.872 88.805 6.899 89.35 A 1.04 1.04 0 0 1 6.9 89.4 A 0.897 0.897 0 0 0 7.022 89.884 A 0.519 0.519 0 0 0 7.3 90.1 C 7.455 90.177 7.549 90.373 7.631 90.597 A 8.087 8.087 0 0 1 7.7 90.8 A 5.674 5.674 0 0 1 7.733 90.941 C 7.788 91.186 7.806 91.333 7.856 91.382 A 0.06 0.06 0 0 0 7.9 91.4 A 0.684 0.684 0 0 0 7.91 91.379 C 7.931 91.334 7.981 91.216 8.038 91.025 A 4.803 4.803 0 0 0 8.1 90.8 C 8.3 90.5 8.6 90.1 8.9 89.7 A 1.574 1.574 0 0 0 9.164 89.342 C 9.367 88.973 9.493 88.462 9.572 87.778 A 11.94 11.94 0 0 0 9.6 87.5 A 22.939 22.939 0 0 1 9.691 86.679 C 9.783 85.951 9.915 85.155 10.086 84.219 A 127.567 127.567 0 0 1 10.2 83.6 A 209.835 209.835 0 0 1 10.202 83.592 C 10.484 82.275 10.767 81.046 10.965 80.074 A 43.727 43.727 0 0 0 11 79.9 A 54.774 54.774 0 0 1 11.842 79.735 C 16.13 78.927 21.644 78.4 28.3 78.4 A 165.157 165.157 0 0 0 29.616 78.358 C 36.12 78.123 41.475 77.525 45.6 76.4 C 50 75.2 52.7 74.2 53.8 73.5 Z" id="0" vector-effect="non-scaling-stroke"/><path d="M 58 75.1 L 59.4 73.3 L 58 75.6 A 11.612 11.612 0 0 1 57.997 75.607 C 57.699 76.302 57.501 76.6 57.6 76.6 C 57.694 76.6 58.318 75.541 59.637 73.588 A 108.99 108.99 0 0 1 59.9 73.2 A 83.588 83.588 0 0 1 60.174 72.734 C 61.547 70.416 63.728 66.955 66.719 62.206 A 13962.803 13962.803 0 0 0 67.1 61.6 C 70.23 56.574 72.46 52.897 73.876 50.654 A 118.074 118.074 0 0 1 74.1 50.3 A 71.566 71.566 0 0 1 75.487 47.872 C 76.054 46.924 76.633 46.004 77.215 45.12 A 71.484 71.484 0 0 1 77.9 44.1 C 79.2 42.2 81.4 38.6 84.6 33.6 C 87.31 29.196 89.877 25.151 92.361 21.343 A 512.026 512.026 0 0 1 93.7 19.3 C 96.536 14.997 98.416 12.033 99.246 10.314 A 12.732 12.732 0 0 0 99.3 10.2 A 57.284 57.284 0 0 0 99.541 9.812 C 100.307 8.565 100.643 7.897 100.613 7.81 A 0.013 0.013 0 0 0 100.6 7.8 A 0.117 0.117 0 0 0 100.538 7.829 C 100.415 7.921 100.164 8.233 99.706 8.763 A 47.789 47.789 0 0 1 99.5 9 A 14.916 14.916 0 0 1 99.284 9.281 C 98.802 9.894 98.463 10.2 98.2 10.2 A 0.432 0.432 0 0 1 98.014 10.164 C 97.885 10.103 97.824 9.965 97.806 9.751 A 1.827 1.827 0 0 1 97.8 9.6 A 1.142 1.142 0 0 1 97.821 9.4 C 97.914 8.886 98.321 7.986 98.99 6.7 A 66.314 66.314 0 0 1 99.2 6.3 L 101.1 3.1 C 101.861 1.768 101.989 1.07 101.397 1.005 A 0.887 0.887 0 0 0 101.3 1 A 0.264 0.264 0 0 1 101.05 0.809 C 101.026 0.75 101.011 0.679 101.004 0.599 A 1.198 1.198 0 0 1 101 0.5 C 101 0.246 100.929 0.064 100.846 0.014 A 0.088 0.088 0 0 0 100.8 0 C 100.707 0 100.268 0.346 99.562 1.2 A 16.523 16.523 0 0 0 99.4 1.4 C 98.709 2.092 97.942 3.157 97.101 4.402 A 118.656 118.656 0 0 0 96.7 5 C 95.808 6.428 94.915 7.617 94.023 8.496 A 9.865 9.865 0 0 1 93.7 8.8 A 8.503 8.503 0 0 0 93.408 9.108 C 92.5 10.112 91.3 11.841 89.749 14.417 A 106.835 106.835 0 0 0 89.4 15 C 87.5 18 86.5 19.8 86.2 20 A 3.248 3.248 0 0 0 86.135 20.091 C 85.759 20.631 84.669 22.413 82.7 25.6 A 320.131 320.131 0 0 1 82.298 26.268 C 80.389 29.433 77.946 33.369 74.97 38.21 A 2298.327 2298.327 0 0 0 74.3 39.3 A 821.665 821.665 0 0 0 71.677 43.598 C 69.671 46.911 67.673 50.281 65.702 53.766 A 282.681 282.681 0 0 0 63.9 57 C 60.5 63 58.5 66.7 57.8 67.9 A 25.623 25.623 0 0 0 57.796 67.907 C 57.097 69.107 56.198 70.804 54.9 73 A 58.339 58.339 0 0 0 54.557 73.668 C 53.533 75.695 52.365 78.27 50.997 81.393 A 536.469 536.469 0 0 0 50.6 82.3 A 9176.679 9176.679 0 0 0 50.29 83.012 C 48.862 86.289 47.988 88.301 47.738 88.908 A 9.851 9.851 0 0 0 47.7 89 A 5.066 5.066 0 0 0 47.548 89.243 C 47.292 89.678 47.223 89.964 47.286 89.997 A 0.03 0.03 0 0 0 47.3 90 A 0.95 0.95 0 0 1 47.289 90.135 C 47.256 90.364 47.144 90.75 46.9 91.4 C 47.329 90.714 47.758 90.175 48.123 89.783 A 7.378 7.378 0 0 1 48.3 89.6 A 0.858 0.858 0 0 0 48.428 89.502 C 48.944 89.039 49.917 87.454 51.412 84.81 A 235.683 235.683 0 0 0 51.7 84.3 A 64.202 64.202 0 0 1 54.043 80.456 C 55.256 78.614 56.575 76.822 58 75.1 Z" id="1" vector-effect="non-scaling-stroke"/><path d="M 112.4 0.2 L 112 0.2 A 0.899 0.899 0 0 0 111.748 0.24 C 111.52 0.307 111.249 0.458 110.936 0.694 A 6.003 6.003 0 0 0 110.8 0.8 C 110.2 1.2 109.8 1.7 109.7 2.4 A 1.914 1.914 0 0 0 109.605 1.972 C 109.382 1.343 108.828 1 108 1 A 0.865 0.865 0 0 1 107.65 0.918 C 107.484 0.845 107.307 0.727 107.105 0.578 A 13.253 13.253 0 0 1 107 0.5 A 1.251 1.251 0 0 0 106.638 0.138 A 0.82 0.82 0 0 0 106.2 0 A 0.444 0.444 0 0 0 106.007 0.049 C 105.742 0.177 105.395 0.561 104.877 1.291 A 21.179 21.179 0 0 0 104.8 1.4 A 8.707 8.707 0 0 0 104.389 1.997 C 104.019 2.588 103.775 3.15 103.7 3.6 A 22.554 22.554 0 0 1 103.471 4.624 C 103.048 6.323 102.462 7.747 101.675 8.821 A 6.618 6.618 0 0 1 101.2 9.4 A 1.494 1.494 0 0 0 101.101 9.535 C 100.655 10.212 100.21 11.852 99.765 14.594 A 69.072 69.072 0 0 0 99.7 15 C 99.2 18 98.9 19.8 98.8 20 A 3.148 3.148 0 0 0 98.779 20.091 C 98.662 20.631 98.363 22.413 97.8 25.6 A 71.022 71.022 0 0 1 97.721 26.268 C 97.33 29.419 96.647 33.336 95.802 38.148 A 19296.464 19296.464 0 0 0 95.6 39.3 A 153.006 153.006 0 0 0 94.908 43.598 C 94.275 47.925 93.825 52.35 93.6 57 A 387.34 387.34 0 0 1 93.6 57.009 C 93.3 63.004 93 66.701 93 67.9 C 92.8 69.1 92.8 70.3 92.8 71.5 L 92.8 75.1 C 92.8 76.226 93.064 78.496 93.675 81.911 A 135.427 135.427 0 0 0 93.8 82.6 A 178.793 178.793 0 0 1 93.927 83.276 C 94.537 86.568 94.8 88.531 94.8 89 C 94.88 89.479 94.96 89.83 95.091 90.004 A 0.318 0.318 0 0 0 95.2 90.1 C 95.355 90.177 95.449 90.373 95.531 90.597 A 8.087 8.087 0 0 1 95.6 90.8 A 5.674 5.674 0 0 1 95.633 90.941 C 95.688 91.186 95.706 91.333 95.756 91.382 A 0.06 0.06 0 0 0 95.8 91.4 A 0.121 0.121 0 0 0 95.889 91.348 C 95.959 91.265 96.03 91.082 96.1 90.8 A 1.482 1.482 0 0 1 96.201 90.574 C 96.318 90.355 96.498 90.106 96.688 89.851 A 59.285 59.285 0 0 1 96.8 89.7 A 1.574 1.574 0 0 0 97.064 89.342 C 97.267 88.973 97.393 88.462 97.472 87.778 A 11.94 11.94 0 0 0 97.5 87.5 C 97.6 86.4 97.8 85 98.2 83.3 A 100.378 100.378 0 0 0 98.415 82.365 C 98.713 81.045 98.957 79.856 99.2 78.8 C 99.378 77.732 99.715 76.664 100.21 75.525 A 20.822 20.822 0 0 1 100.4 75.1 L 101.2 73.3 L 101 74.7 L 101 75.6 C 101 75.854 101.072 76.036 101.154 76.086 A 0.088 0.088 0 0 0 101.2 76.1 A 0.106 0.106 0 0 0 101.274 76.055 C 101.47 75.829 101.735 74.754 102 72.9 C 102.3 70.8 103 67 104 61.6 C 104.9 56.3 105.6 52.5 105.9 50.3 A 70.22 70.22 0 0 1 106.142 48.67 C 106.4 47.063 106.7 45.525 107 44.1 A 57.534 57.534 0 0 0 107.075 43.74 C 107.495 41.676 108.271 37.407 109.4 31.1 C 110.646 24.68 111.524 20.555 112.036 18.814 A 12.935 12.935 0 0 1 112.1 18.6 A 232.836 232.836 0 0 0 112.377 19.443 C 113.735 23.556 114.732 26.175 115.2 27.3 A 72.206 72.206 0 0 1 115.378 27.731 C 115.772 28.694 116.013 29.35 116.1 29.7 A 5.58 5.58 0 0 0 116.168 29.945 C 116.254 30.234 116.385 30.591 116.584 30.993 A 7.64 7.64 0 0 0 116.8 31.4 C 117.121 31.961 117.441 32.715 117.813 33.558 A 62.659 62.659 0 0 0 118.1 34.2 A 94.563 94.563 0 0 1 118.103 34.206 C 118.602 35.304 119.001 36.201 119.2 36.6 A 10.906 10.906 0 0 1 119.403 36.915 C 119.653 37.32 119.799 37.631 119.883 37.936 A 2.623 2.623 0 0 1 119.9 38 C 120 38.4 120.5 39.2 121.2 40.4 A 28.531 28.531 0 0 0 121.491 40.793 C 122.149 41.666 122.663 42.213 123.1 42.3 C 123.5 42.38 124.028 42.46 124.684 42.489 A 11.763 11.763 0 0 0 125.2 42.5 A 3.765 3.765 0 0 0 125.586 42.482 C 125.842 42.455 126.054 42.399 126.219 42.309 A 0.72 0.72 0 0 0 126.6 41.8 C 126.8 41.4 127.4 40.9 128.3 40.3 A 3.431 3.431 0 0 0 129.475 39.014 C 129.707 38.566 129.855 38.034 129.9 37.4 A 18.034 18.034 0 0 1 129.927 37.106 C 130.025 36.123 130.178 35.379 130.198 35.061 A 0.992 0.992 0 0 0 130.2 35 C 130.382 34.728 130.728 34.044 131.388 32.949 A 43.873 43.873 0 0 1 131.6 32.6 A 15.039 15.039 0 0 1 132.168 31.746 C 132.896 30.726 133.807 29.694 134.9 28.6 C 136.3 27.1 137.6 25.8 138.8 24.4 C 139.839 23.441 140.942 22.674 142.108 22.2 A 7.52 7.52 0 0 1 143 21.9 A 10.591 10.591 0 0 0 143.353 21.752 C 143.618 21.634 143.828 21.526 143.939 21.449 A 0.462 0.462 0 0 0 144 21.4 A 52.921 52.921 0 0 1 144.465 20.94 C 145.921 19.52 146.966 18.691 147.6 18.6 A 0.964 0.964 0 0 0 147.677 18.509 C 147.757 18.406 147.85 18.275 148 18.2 A 0.089 0.089 0 0 1 148.024 18.156 C 148.174 17.965 149.041 17.297 150.4 16.3 C 150.2 18.6 150 19.8 149.9 20.1 C 149.803 20.393 149.61 22.115 149.228 25.361 A 1578.759 1578.759 0 0 1 149.2 25.6 A 57.987 57.987 0 0 1 149.158 26.268 C 148.924 29.667 148.35 33.956 147.6 39.3 A 159.223 159.223 0 0 0 147.132 43.598 C 146.792 47.164 146.566 50.797 146.455 54.568 A 183.905 183.905 0 0 0 146.4 57 L 146.4 67.9 L 146.4 73 A 24.353 24.353 0 0 0 146.439 73.668 C 146.597 75.888 147.075 78.766 147.8 82.3 A 127.279 127.279 0 0 1 147.981 83.012 C 148.84 86.444 149.193 88.488 149.2 88.985 A 1.039 1.039 0 0 1 149.2 89 C 149.28 89.479 149.36 89.83 149.491 90.004 A 0.318 0.318 0 0 0 149.6 90.1 A 0.661 0.661 0 0 1 149.988 90.497 A 3.276 3.276 0 0 1 150.1 90.8 A 5.674 5.674 0 0 1 150.133 90.941 C 150.188 91.186 150.206 91.333 150.256 91.382 A 0.06 0.06 0 0 0 150.3 91.4 A 0.121 0.121 0 0 0 150.389 91.348 C 150.459 91.265 150.53 91.082 150.6 90.8 A 1.482 1.482 0 0 1 150.701 90.574 C 150.818 90.355 150.998 90.106 151.188 89.851 A 59.285 59.285 0 0 1 151.3 89.7 C 151.557 89.358 151.741 88.796 151.788 87.951 A 8.028 8.028 0 0 0 151.8 87.5 C 151.8 86.4 152 85 152.3 83.3 A 142.515 142.515 0 0 1 152.302 83.29 C 152.601 81.594 152.9 80.098 153 78.8 C 153.2 77.6 153.6 76.4 154.1 75.1 L 154.9 73.3 L 154.8 74.7 L 154.8 75.6 C 154.8 75.854 154.872 76.036 154.954 76.086 A 0.088 0.088 0 0 0 155 76.1 A 0.08 0.08 0 0 0 155.057 76.071 C 155.228 75.895 155.4 74.916 155.571 73.198 A 65.521 65.521 0 0 0 155.6 72.9 A 173.268 173.268 0 0 0 155.659 72.486 C 155.945 70.446 156.382 67.088 156.902 62.479 A 562.76 562.76 0 0 0 157 61.6 A 247.235 247.235 0 0 0 157.146 60.624 C 157.809 56.108 158.17 52.768 158.366 50.671 A 136.878 136.878 0 0 0 158.4 50.3 A 72.64 72.64 0 0 1 158.567 48.67 C 158.75 47.063 158.975 45.525 159.2 44.1 A 147.031 147.031 0 0 0 159.202 44.09 C 159.495 42.233 159.978 38.761 160.744 33.952 A 513.214 513.214 0 0 1 160.8 33.6 A 164.114 164.114 0 0 1 161.034 31.673 C 161.568 27.482 162.221 23.615 162.881 19.959 A 509.651 509.651 0 0 1 163 19.3 A 196.379 196.379 0 0 0 163.146 18.491 C 163.849 14.53 164.2 11.794 164.2 10.2 A 34.838 34.838 0 0 0 164.198 9.771 C 164.183 8.605 164.11 7.957 164.031 7.825 A 0.041 0.041 0 0 0 164 7.8 C 163.8 7.8 163.6 7.9 163.5 8.2 A 0.793 0.793 0 0 0 163.311 8.225 C 163.134 8.269 162.909 8.374 162.637 8.573 A 3.659 3.659 0 0 0 162.6 8.6 A 1.205 1.205 0 0 1 162.478 8.705 C 162.167 8.943 161.606 9.18 160.796 9.417 A 16.836 16.836 0 0 1 160.5 9.5 C 160 8.9 159.8 7.8 159.8 6.3 L 160.1 3.1 A 4.118 4.118 0 0 0 160.079 2.666 C 159.961 1.555 159.358 1 158.2 1 L 157.5 1 C 157.2 1 157 0.8 157 0.5 A 7.132 7.132 0 0 1 156.999 0.498 C 156.8 0.199 156.699 0 156.4 0 A 0.45 0.45 0 0 0 156.199 0.053 C 155.955 0.176 155.661 0.512 155.315 1.099 A 9.262 9.262 0 0 0 155.2 1.3 A 22.505 22.505 0 0 0 154.897 1.766 C 154.466 2.448 154.182 3.008 154.1 3.5 A 10.807 10.807 0 0 0 153.711 3.786 C 152.874 4.43 151.855 5.385 150.653 6.698 A 46.982 46.982 0 0 0 150.2 7.2 A 29.627 29.627 0 0 0 149.586 7.833 C 148.318 9.179 147.356 10.46 146.598 11.677 A 22.307 22.307 0 0 0 146.4 12 A 5.467 5.467 0 0 1 146.344 12.056 C 146.211 12.185 145.942 12.429 145.6 12.6 A 31.88 31.88 0 0 0 145.283 12.92 C 144.966 13.247 144.61 13.637 144.252 14.128 A 9.557 9.557 0 0 0 144.2 14.2 C 143.626 14.87 142.777 15.814 141.566 17.034 A 70.779 70.779 0 0 1 141.4 17.2 L 136.9 21.9 A 30.745 30.745 0 0 0 135.792 23.145 C 134.799 24.322 133.846 25.621 132.935 27.044 A 43.776 43.776 0 0 0 132.4 27.9 C 131.163 30.089 130.288 31.282 129.861 31.392 A 0.246 0.246 0 0 1 129.8 31.4 L 129.7 31.4 C 129.407 31.4 129.21 31.018 129.201 30.255 A 4.663 4.663 0 0 1 129.2 30.2 C 129.2 29.5 128.9 27.9 128.2 25.6 A 57.603 57.603 0 0 1 128.001 24.899 C 127.372 22.636 126.666 19.622 125.884 15.991 A 385.793 385.793 0 0 1 125.8 15.6 C 124.8 11.2 124.1 8.8 123.6 8.1 A 5.469 5.469 0 0 0 123.258 7.672 C 122.852 7.209 122.318 6.729 121.656 6.177 A 58.825 58.825 0 0 0 121.2 5.8 A 16.204 16.204 0 0 1 120.505 5.25 C 119.842 4.693 119.284 4.121 118.807 3.488 A 9.153 9.153 0 0 1 118.4 2.9 C 117.3 1.1 115.3 0.2 112.4 0.2 Z M 119.174 6.472 A 0.154 0.154 0 0 0 119.1 6.6 A 0.109 0.109 0 0 0 119.101 6.611 C 119.114 6.734 119.317 7.227 119.8 8 A 11.835 11.835 0 0 0 119.909 8.212 C 120.166 8.702 120.382 9.019 120.588 9.224 A 1.404 1.404 0 0 0 120.8 9.4 A 0.564 0.564 0 0 1 120.914 9.411 C 121.042 9.438 121.121 9.5 121.2 9.5 C 121.277 9.5 121.295 9.441 121.299 9.414 A 0.102 0.102 0 0 0 121.3 9.4 C 121.3 9.2 121.1 8.7 120.6 7.8 C 120.21 7.097 119.941 6.638 119.699 6.471 A 0.349 0.349 0 0 0 119.5 6.4 C 119.339 6.4 119.235 6.429 119.174 6.472 Z M 136 22.2 A 0.29 0.29 0 0 0 135.905 22.22 C 135.814 22.253 135.681 22.328 135.486 22.465 A 7.319 7.319 0 0 0 135.3 22.6 C 134.9 22.8 134.7 23 134.7 23.2 C 134.7 23.3 134.7 23.4 134.8 23.4 A 0.171 0.171 0 0 0 134.886 23.368 C 134.972 23.313 135.093 23.19 135.248 22.997 A 7.303 7.303 0 0 0 135.4 22.8 A 7.229 7.229 0 0 0 135.604 22.642 C 135.868 22.429 136 22.281 136 22.2 Z M 161.8 10.2 L 161.7 10.2 A 5.611 5.611 0 0 1 162.727 9.427 A 29.632 29.632 0 0 1 163.1 9.2 A 1.969 1.969 0 0 1 162.845 9.59 C 162.718 9.741 162.574 9.862 162.421 9.957 A 1.874 1.874 0 0 1 161.8 10.2 Z" id="2" vector-effect="non-scaling-stroke"/></g></svg>